# xmcd
#
# Track frame offsets: 
#        150
#        20755
#        38465
#        61865
#        82992
#        101000
#        129842
#        147375
#
# Disc length: 2109 seconds
#
# Revision: 0
# Processed by: cddbd v1.5.2PL0 Copyright (c) Steve Scherf et al.
# Submitted via: ExactAudioCopy v0.99pb4
#
DISCID=5e083b08
DTITLE=Cody Palance - Rock Dog
DYEAR=1995
DGENRE=Country
TTITLE0=Cadillac
TTITLE1=Black Widow
TTITLE2=Highway
TTITLE3=Midnight Rain
TTITLE4=Fool for your Stockings
TTITLE5=Eyes
TTITLE6=Vacation
TTITLE7=Ragtop
EXTD=
EXTT0=
EXTT1=
EXTT2=
EXTT3=
EXTT4=
EXTT5=
EXTT6=
EXTT7=
PLAYORDER=
